<svg width="508" height="534" viewBox="0 0 508 534" fill="none" xmlns="http://www.w3.org/2000/svg">
<path d="M457.809 29.2373C476.956 32.7829 493.208 43.7394 512.405 47.473C536.999 85.0466 547.886 129.175 547.886 174.574C547.886 235.724 554.731 295.944 572.375 354.621C583.248 390.781 577.321 429.737 576.634 466.844C576.265 486.756 563.872 508.878 544.053 515.609C521.609 523.232 497.086 517.526 474.1 517.526C440.336 517.526 407.145 514.045 373.589 510.818C318.265 505.498 260.91 518.002 206.851 527.96C159.871 536.615 117.749 535.044 72.5874 519.442C45.4557 510.07 7.17482 486.159 2.10176 454.706C-4.533 413.571 16.4486 375.074 34.3633 340.141C50.4027 308.864 81.3601 287.224 101.335 258.688C119.484 232.761 134.615 204.097 150.739 176.81C156.743 166.65 161.687 156.271 167.988 146.145C176.392 132.639 185.382 117.869 191.412 103.13C196.559 90.5487 205.545 81.0393 211.536 69.0585C218.572 54.985 225.698 45.7556 238.367 36.371C257.474 22.218 283.032 0.0634766 308.32 0.0634766C341.839 0.0634766 375.908 5.29908 407.98 15.3957C424.489 20.5929 440.773 26.0824 457.809 29.2373Z" fill="#B50314"/>
</svg>
