<svg width="82" height="110" viewBox="0 0 82 110" fill="none" xmlns="http://www.w3.org/2000/svg">
<path fill-rule="evenodd" clip-rule="evenodd" d="M40.9694 7.67442C21.4577 7.67442 7.68176 21.7084 7.68176 38.9809C7.68176 46.8395 10.9183 52.14 14.9794 57.1949C15.8603 58.2949 16.7565 59.354 17.6783 60.4437L18.1699 61.0167C19.2454 62.2958 20.3567 63.6158 21.3963 64.9767C23.4652 67.6935 25.4061 70.7479 26.4918 74.36C26.7577 75.326 26.6349 76.3575 26.1497 77.2343C25.6644 78.111 24.8552 78.7634 23.8949 79.052C22.9346 79.3406 21.8994 79.2426 21.0105 78.7789C20.1216 78.3151 19.4495 77.5224 19.1378 76.5702C18.4311 74.2167 17.1047 72.0167 15.2816 69.6274C14.3188 68.385 13.325 67.167 12.3011 65.9744L11.8299 65.4116C10.9081 64.327 9.93508 63.1809 8.98766 61.9991C4.45542 56.3609 0 49.3772 0 38.9758C0 17.206 17.4888 0 40.9694 0C64.45 0 81.9388 17.2009 81.9388 38.9809C81.9388 49.3772 77.4834 56.3609 72.9511 62.0042C72.0037 63.1809 71.0307 64.327 70.1089 65.4167L69.6377 65.9744C68.5623 67.2433 67.5636 68.4354 66.6572 69.6274C64.8341 72.0167 63.5077 74.2219 62.801 76.5702C62.5076 77.5452 61.8386 78.3638 60.9411 78.8459C60.0436 79.3281 58.9911 79.4343 58.0152 79.1412C57.0393 78.8481 56.22 78.1797 55.7374 77.283C55.2548 76.3864 55.1485 75.335 55.4418 74.36C56.5326 70.7479 58.4736 67.6935 60.5476 64.9767C61.5821 63.6158 62.6934 62.2958 63.774 61.0167L64.2605 60.4437C65.1823 59.354 66.0785 58.2949 66.9593 57.2C71.0204 52.1349 74.257 46.8395 74.257 38.9809C74.257 21.7084 60.4811 7.67442 40.9694 7.67442ZM28.1665 106.163C28.1665 105.145 28.5711 104.169 29.2914 103.449C30.0117 102.73 30.9887 102.326 32.0073 102.326H49.9314C50.9501 102.326 51.927 102.73 52.6474 103.449C53.3677 104.169 53.7723 105.145 53.7723 106.163C53.7723 107.18 53.3677 108.156 52.6474 108.876C51.927 109.596 50.9501 110 49.9314 110H32.0073C30.9887 110 30.0117 109.596 29.2914 108.876C28.5711 108.156 28.1665 107.18 28.1665 106.163ZM24.3256 86.9767C23.3069 86.9767 22.33 87.381 21.6097 88.1006C20.8894 88.8203 20.4847 89.7963 20.4847 90.814C20.4847 91.8316 20.8894 92.8077 21.6097 93.5273C22.33 94.2469 23.3069 94.6512 24.3256 94.6512H57.6132C58.6319 94.6512 59.6088 94.2469 60.3291 93.5273C61.0494 92.8077 61.4541 91.8316 61.4541 90.814C61.4541 89.7963 61.0494 88.8203 60.3291 88.1006C59.6088 87.381 58.6319 86.9767 57.6132 86.9767H24.3256Z" fill="white"/>
</svg>
