<svg width="168" height="55" viewBox="0 0 168 55" fill="none" xmlns="http://www.w3.org/2000/svg">
<path d="M11.9578 39.472L0.389811 28.432L11.9578 17.44H17.4778L5.86181 28.432L17.4778 39.472H11.9578ZM48.7588 0.783998L35.6068 54.16H31.2868L44.3908 0.783998H48.7588ZM59.3949 32.752C59.3949 30.064 59.9389 27.712 61.0269 25.696C62.1149 23.648 63.6029 22.064 65.4909 20.944C67.4109 19.824 69.5549 19.264 71.9229 19.264C73.9709 19.264 75.8749 19.744 77.6349 20.704C79.3949 21.632 80.7389 22.864 81.6669 24.4V10.48H86.0829V46H81.6669V41.056C80.8029 42.624 79.5229 43.92 77.8269 44.944C76.1309 45.936 74.1469 46.432 71.8749 46.432C69.5389 46.432 67.4109 45.856 65.4909 44.704C63.6029 43.552 62.1149 41.936 61.0269 39.856C59.9389 37.776 59.3949 35.408 59.3949 32.752ZM81.6669 32.8C81.6669 30.816 81.2669 29.088 80.4669 27.616C79.6669 26.144 78.5789 25.024 77.2029 24.256C75.8589 23.456 74.3709 23.056 72.7389 23.056C71.1069 23.056 69.6189 23.44 68.2749 24.208C66.9309 24.976 65.8589 26.096 65.0589 27.568C64.2589 29.04 63.8589 30.768 63.8589 32.752C63.8589 34.768 64.2589 36.528 65.0589 38.032C65.8589 39.504 66.9309 40.64 68.2749 41.44C69.6189 42.208 71.1069 42.592 72.7389 42.592C74.3709 42.592 75.8589 42.208 77.2029 41.44C78.5789 40.64 79.6669 39.504 80.4669 38.032C81.2669 36.528 81.6669 34.784 81.6669 32.8ZM101.48 15.424C100.648 15.424 99.9444 15.136 99.3684 14.56C98.7924 13.984 98.5044 13.28 98.5044 12.448C98.5044 11.616 98.7924 10.912 99.3684 10.336C99.9444 9.76 100.648 9.472 101.48 9.472C102.28 9.472 102.952 9.76 103.496 10.336C104.072 10.912 104.36 11.616 104.36 12.448C104.36 13.28 104.072 13.984 103.496 14.56C102.952 15.136 102.28 15.424 101.48 15.424ZM103.592 19.696V46H99.2244V19.696H103.592ZM126.589 41.968L134.749 19.696H139.405L129.085 46H123.997L113.677 19.696H118.381L126.589 41.968ZM150.279 17.44H155.799L167.415 28.432L155.799 39.472H150.279L161.895 28.432L150.279 17.44Z" fill="white"/>
</svg>
