<svg width="85" height="110" viewBox="0 0 85 110" fill="none" xmlns="http://www.w3.org/2000/svg">
<path d="M77.694 49.9676L76.9212 48.5715C76.9421 38.6055 72.4518 34.5461 67.2095 31.4532C68.7968 31.0236 70.4259 30.68 70.8854 28.618C73.6214 27.9092 74.1853 26.599 74.4568 25.2244C75.1669 24.7304 77.5478 23.3558 77.2972 20.9931C78.6339 20.0481 79.3857 18.8238 78.9889 17.1055C80.43 15.4947 80.8059 14.163 80.2003 12.9387C81.9338 10.7264 81.161 9.58807 80.43 8.44971C81.7249 6.04412 80.5762 3.4667 76.963 3.89627C75.5219 1.72694 72.3891 2.22095 71.9087 2.22095C71.3657 1.53364 70.6556 0.932241 68.4626 1.21146C67.0424 -0.0987266 65.4551 0.137537 63.8052 0.760413C61.8629 -0.807517 60.568 0.459714 59.0851 0.932241C56.725 0.159015 56.182 1.21146 55.0333 1.66251C52.4644 1.10407 51.6708 2.30686 50.4385 3.5741L48.9974 3.55262C45.1127 5.87229 43.1913 10.5976 42.5021 13.0246C41.8128 10.5976 39.8914 5.87229 36.0067 3.55262L34.5656 3.5741C33.3334 2.30686 32.5397 1.10407 29.9708 1.66251C28.8012 1.23294 28.2791 0.159015 25.919 0.932241C24.9583 0.631542 24.0602 -0.0128127 23.016 0.0086658C22.4729 0.0301443 21.8673 0.223451 21.1989 0.760413C19.549 0.116058 17.9617 -0.0987266 16.5415 1.21146C14.3485 0.932241 13.6175 1.51216 13.0954 2.22095C12.615 2.22095 9.4822 1.72694 8.04111 3.89627C4.42793 3.4667 3.30012 6.04412 4.59501 8.44971C3.86402 9.60955 3.09126 10.7479 4.82475 12.9387C4.21907 14.163 4.59501 15.4947 6.03611 17.1055C5.66017 18.8238 6.41204 20.0481 7.72783 20.9931C7.4772 23.3558 9.85814 24.7304 10.5682 25.2244C10.8398 26.599 11.4037 27.8877 14.1397 28.618C14.5991 30.6585 16.2282 31.0236 17.8155 31.4532C12.5732 34.5461 8.08288 38.6055 8.10376 48.5715L7.331 49.9676C1.316 53.6619 -4.09333 65.5825 4.36527 75.2478C4.90829 78.2763 5.84814 80.4456 6.66267 82.8512C7.89491 92.5595 15.9567 97.0914 18.0661 97.6284C21.178 100.034 24.4988 102.311 28.9683 103.9C33.208 108.325 37.8028 110 42.3976 110H42.6065C47.2222 110 51.7961 108.325 56.0149 103.9C60.5053 102.311 63.8052 100.034 66.9171 97.6284C69.0474 97.0914 77.0883 92.5595 78.3206 82.8512C79.1351 80.4456 80.075 78.2763 80.618 75.2478C89.0975 65.561 83.6881 53.6619 77.694 49.9676ZM73.0574 48.2494C72.7442 52.2658 52.4018 34.2669 55.9105 33.6655C65.4552 32.0546 73.3707 37.7893 73.0574 48.2494ZM64.0767 68.2458C58.9598 71.6394 51.5872 69.4486 47.619 63.3487C43.6508 57.2488 44.5697 49.5595 49.6866 46.1659C54.8036 42.7723 62.1761 44.9631 66.1444 51.063C70.1126 57.1629 69.1936 64.8522 64.0767 68.2458ZM49.8955 6.32334C50.0626 7.22544 50.2714 7.78388 50.5012 7.95571C51.629 6.70995 52.548 5.44272 54.0099 4.23993C54.0099 4.94872 53.6549 5.70047 54.5321 6.25891C55.3048 5.18498 56.37 4.21845 57.7693 3.40227C57.101 4.60506 57.644 4.9702 58.0199 5.4642C59.0851 4.51915 60.1085 3.5741 62.0717 2.82235C61.5287 3.48818 60.7768 4.15401 61.5705 4.92724C62.6774 4.21845 63.7843 3.50966 66.395 3.01565C65.8102 3.68149 64.578 4.3688 65.3298 5.03463C66.7083 4.49767 68.2538 4.08958 69.9455 3.87479C69.131 4.56211 68.4627 5.22794 69.131 5.7649C70.6139 5.29237 72.6606 4.6695 74.6447 5.20646L73.3916 6.51665C73.2454 6.68848 76.3365 6.64552 78.3832 6.68848C77.6314 7.7624 76.8795 8.77189 76.4409 10.5976C76.6497 10.8123 77.6522 10.6835 78.613 10.5976C77.6314 12.7239 75.9396 13.2394 75.5428 14.163C76.1485 14.6355 76.963 14.5066 77.882 14.1845C77.1719 15.6665 75.7099 16.6975 74.5403 17.9002C74.8327 18.115 75.3548 18.2439 76.5662 18.0936C75.4802 19.2749 74.1853 20.3488 72.6397 21.3153C72.9112 21.6375 73.8511 21.6375 74.7283 21.659C73.329 23.0551 71.5328 23.7854 69.8411 24.7089C70.6765 25.2888 71.2822 25.16 71.9296 25.16C70.7392 26.1695 68.7133 26.6849 66.8336 27.3078C67.1886 27.8877 67.5437 28.0381 68.3165 28.1884C66.3323 29.3268 63.471 28.8113 62.6774 29.3912C62.8654 29.9712 63.4293 30.3363 64.0767 30.637C60.8604 30.8303 52.1094 30.5081 50.4176 23.6994C53.6967 19.9837 59.6908 15.645 69.9873 10.2539C61.9673 13.0032 54.7409 16.6975 48.6842 21.7449C41.5205 18.3298 46.4285 9.73842 49.8955 6.32334ZM42.7109 30.9377C47.7652 30.8733 54.0099 34.7609 53.9891 38.3907C53.9682 41.6125 49.6031 44.2114 42.7527 44.1684C36.0485 44.0825 31.5372 40.9037 31.5581 37.7678C31.5581 35.2119 37.0301 30.7873 42.7109 30.9377ZM17.0218 28.1884C17.7946 28.0381 18.1497 27.8663 18.5047 27.3078C16.625 26.7064 14.5991 26.1695 13.4087 25.16C14.0561 25.16 14.6618 25.3103 15.4972 24.7089C13.8055 23.7854 12.0093 23.0551 10.61 21.659C11.4872 21.6375 12.427 21.659 12.6986 21.3153C11.153 20.3488 9.85814 19.2749 8.7721 18.0936C9.98345 18.2439 10.5056 18.115 10.798 17.9002C9.6284 16.6975 8.14553 15.6665 7.45632 14.1845C8.35439 14.5066 9.18981 14.614 9.79548 14.163C9.39866 13.2609 7.70694 12.7239 6.72533 10.5976C7.68606 10.6835 8.68856 10.8123 8.89741 10.5976C8.45882 8.77189 7.68606 7.74092 6.95507 6.68848C9.00184 6.667 12.0929 6.68848 11.9467 6.51665L10.6936 5.20646C12.6777 4.6695 14.7244 5.29237 16.2073 5.7649C16.8756 5.22794 16.1864 4.56211 15.3928 3.87479C17.0845 4.11106 18.6091 4.49767 20.0085 5.03463C20.7395 4.3688 19.5281 3.68149 18.9433 3.01565C21.554 3.50966 22.6609 4.21845 23.7678 4.92724C24.5615 4.15401 23.8096 3.48818 23.2666 2.82235C25.2298 3.55262 26.2532 4.51915 27.3184 5.4642C27.6734 4.9702 28.2373 4.60506 27.569 3.40227C28.9683 4.21845 30.0335 5.18498 30.8062 6.25891C31.6625 5.70047 31.3284 4.92724 31.3284 4.23993C32.7903 5.44272 33.7093 6.70995 34.8371 7.95571C35.0669 7.78388 35.2548 7.22544 35.4428 6.32334C38.9098 9.73842 43.8178 18.3298 36.6959 21.7449C30.6391 16.6975 23.4128 13.0032 15.3928 10.2539C25.6893 15.6235 31.6834 19.9837 34.9624 23.6994C33.2916 30.5296 24.5197 30.8303 21.3034 30.637C21.9508 30.3363 22.5147 29.9497 22.7027 29.3912C21.8673 28.7898 19.0268 29.3053 17.0218 28.1884ZM29.574 33.3648C33.0827 33.9662 12.7403 51.9437 12.427 47.9487C12.1138 37.4886 20.0502 31.7324 29.574 33.3648ZM7.97845 73.4866C3.0286 69.4486 1.44131 57.6569 10.61 52.3732C16.1447 50.8697 12.4897 75.527 7.97845 73.4866ZM26.9842 94.5785C24.2064 96.2753 17.4187 95.5879 12.615 88.586C9.37778 82.7008 9.79548 76.7298 12.072 74.9686C15.4763 72.8637 20.7394 75.6989 24.7912 80.4671C28.3209 84.7628 29.929 92.3447 26.9842 94.5785ZM21.4704 68.8687C16.3535 65.4751 15.4346 57.7858 19.4028 51.6859C23.371 45.586 30.7436 43.3952 35.8605 46.7888C40.9774 50.1824 41.8964 57.8717 37.9282 63.9716C33.939 70.0715 26.5665 72.2623 21.4704 68.8687ZM42.8153 106.563C36.675 106.821 30.66 101.473 30.7436 99.6259C30.66 96.8981 38.2206 94.7718 43.1286 94.9006C48.0785 94.6859 54.7409 96.5115 54.7618 98.9601C54.8662 101.323 48.7468 106.671 42.8153 106.563ZM55.1169 79.7368C55.1586 86.1159 49.6449 91.2922 42.8362 91.3352C36.0276 91.3782 30.4721 86.2233 30.4303 79.8657V79.7368C30.3885 73.3577 35.9023 68.1814 42.7109 68.1384C49.5196 68.0955 55.0751 73.2503 55.1169 79.6079V79.7368ZM72.2847 88.9081C67.0007 96.3397 59.837 96.6189 57.1845 94.557C54.4068 91.8936 56.5162 83.6244 60.3382 79.0925C64.7033 74.088 69.3816 70.8232 72.6397 73.3792C74.8327 75.5915 76.1276 83.9251 72.2847 88.9081ZM77.0675 73.1859C72.5771 75.2049 68.9221 50.569 74.4359 52.0725C83.6046 57.3777 82.0173 69.1694 77.0675 73.1859Z" fill="white"/>
</svg>
