<svg width="410" height="395" viewBox="0 0 410 395" fill="none" xmlns="http://www.w3.org/2000/svg">
<path d="M63.4874 10.9557C27.4183 -6.48429 -18.5783 -2.81596 -50.0877 22.0834C-49.8198 37.0945 -47.1541 51.74 -46.5511 66.8142C-45.7362 87.186 -42.3653 107.427 -41.7172 127.842C-40.9752 151.217 -42.2757 175.14 -42.9257 198.538C-43.6924 226.142 -47.4957 252.366 -56.756 278.432C-66.1394 304.844 -82.5585 330.457 -85.6923 358.661C-87.6721 376.479 -83.9832 392.219 -66.6924 399.817C-40.8315 411.18 -12.8398 419.078 15.2826 421.502C52.9655 424.751 90.332 430.733 128.074 433.587C166.776 436.514 205.224 439.154 243.282 446.88C288.388 456.037 332.595 462.44 378.631 457.622C396.255 455.778 409.112 450.117 409.112 431.237C409.112 415.117 406.605 397.609 398.773 383.368C386.153 360.424 369.739 340.202 354.126 319.386C338.884 299.063 317.081 278.978 296.455 264.065C285.134 255.879 272.324 246.882 259.529 241.103C249.541 236.593 239.709 231.037 232.674 222.439C211.366 196.396 186.546 165.443 179.233 131.803C175.709 115.594 168.646 100.009 162.583 84.6728C157.258 71.205 145.723 57.3432 133.311 49.8955C123.563 44.0469 114.21 38.0987 104.307 32.4398C90.8052 24.7244 77.4905 17.7264 63.4874 10.9557Z" fill="white"/>
</svg>
