<svg width="845" height="145" viewBox="0 0 845 145" fill="none" xmlns="http://www.w3.org/2000/svg">
<line y1="73" x2="175" y2="73" stroke="black" stroke-width="4" stroke-linejoin="round" stroke-dasharray="15 15"/>
<line x1="670" y1="73" x2="845" y2="73" stroke="black" stroke-width="4" stroke-linejoin="round" stroke-dasharray="15 15"/>
<line x1="207" y1="73" x2="638" y2="73" stroke="black" stroke-width="4" stroke-linejoin="round" stroke-dasharray="15 15"/>
<path d="M620.428 34.42C622.732 32.428 624.544 30.796 625.864 29.524C627.208 28.228 628.324 26.884 629.212 25.492C630.1 24.1 630.544 22.708 630.544 21.316C630.544 19.876 630.196 18.748 629.5 17.932C628.828 17.116 627.76 16.708 626.296 16.708C624.88 16.708 623.776 17.164 622.984 18.076C622.216 18.964 621.808 20.164 621.76 21.676H617.8C617.872 18.94 618.688 16.852 620.248 15.412C621.832 13.948 623.836 13.216 626.26 13.216C628.876 13.216 630.916 13.936 632.38 15.376C633.868 16.816 634.612 18.736 634.612 21.136C634.612 22.864 634.168 24.532 633.28 26.14C632.416 27.724 631.372 29.152 630.148 30.424C628.948 31.672 627.412 33.124 625.54 34.78L623.92 36.22H635.332V39.64H617.836V36.652L620.428 34.42ZM638.937 26.536C638.937 22.384 639.633 19.144 641.025 16.816C642.441 14.464 644.865 13.288 648.297 13.288C651.729 13.288 654.141 14.464 655.533 16.816C656.949 19.144 657.657 22.384 657.657 26.536C657.657 30.736 656.949 34.024 655.533 36.4C654.141 38.752 651.729 39.928 648.297 39.928C644.865 39.928 642.441 38.752 641.025 36.4C639.633 34.024 638.937 30.736 638.937 26.536ZM653.625 26.536C653.625 24.592 653.493 22.948 653.229 21.604C652.989 20.26 652.485 19.168 651.717 18.328C650.949 17.464 649.809 17.032 648.297 17.032C646.785 17.032 645.645 17.464 644.877 18.328C644.109 19.168 643.593 20.26 643.329 21.604C643.089 22.948 642.969 24.592 642.969 26.536C642.969 28.552 643.089 30.244 643.329 31.612C643.569 32.98 644.073 34.084 644.841 34.924C645.633 35.764 646.785 36.184 648.297 36.184C649.809 36.184 650.949 35.764 651.717 34.924C652.509 34.084 653.025 32.98 653.265 31.612C653.505 30.244 653.625 28.552 653.625 26.536Z" fill="black"/>
<path d="M664.268 34.42C666.572 32.428 668.384 30.796 669.704 29.524C671.048 28.228 672.164 26.884 673.052 25.492C673.94 24.1 674.384 22.708 674.384 21.316C674.384 19.876 674.036 18.748 673.34 17.932C672.668 17.116 671.6 16.708 670.136 16.708C668.72 16.708 667.616 17.164 666.824 18.076C666.056 18.964 665.648 20.164 665.6 21.676H661.64C661.712 18.94 662.528 16.852 664.088 15.412C665.672 13.948 667.676 13.216 670.1 13.216C672.716 13.216 674.756 13.936 676.22 15.376C677.708 16.816 678.452 18.736 678.452 21.136C678.452 22.864 678.008 24.532 677.12 26.14C676.256 27.724 675.212 29.152 673.988 30.424C672.788 31.672 671.252 33.124 669.38 34.78L667.76 36.22H679.172V39.64H661.676V36.652L664.268 34.42ZM682.237 17.5V13.756H689.725V40H685.585V17.5H682.237Z" fill="#B50314"/>
<path d="M155.428 125.42C157.732 123.428 159.544 121.796 160.864 120.524C162.208 119.228 163.324 117.884 164.212 116.492C165.1 115.1 165.544 113.708 165.544 112.316C165.544 110.876 165.196 109.748 164.5 108.932C163.828 108.116 162.76 107.708 161.296 107.708C159.88 107.708 158.776 108.164 157.984 109.076C157.216 109.964 156.808 111.164 156.76 112.676H152.8C152.872 109.94 153.688 107.852 155.248 106.412C156.832 104.948 158.836 104.216 161.26 104.216C163.876 104.216 165.916 104.936 167.38 106.376C168.868 107.816 169.612 109.736 169.612 112.136C169.612 113.864 169.168 115.532 168.28 117.14C167.416 118.724 166.372 120.152 165.148 121.424C163.948 122.672 162.412 124.124 160.54 125.78L158.92 127.22H170.332V130.64H152.836V127.652L155.428 125.42ZM173.937 117.536C173.937 113.384 174.633 110.144 176.025 107.816C177.441 105.464 179.865 104.288 183.297 104.288C186.729 104.288 189.141 105.464 190.533 107.816C191.949 110.144 192.657 113.384 192.657 117.536C192.657 121.736 191.949 125.024 190.533 127.4C189.141 129.752 186.729 130.928 183.297 130.928C179.865 130.928 177.441 129.752 176.025 127.4C174.633 125.024 173.937 121.736 173.937 117.536ZM188.625 117.536C188.625 115.592 188.493 113.948 188.229 112.604C187.989 111.26 187.485 110.168 186.717 109.328C185.949 108.464 184.809 108.032 183.297 108.032C181.785 108.032 180.645 108.464 179.877 109.328C179.109 110.168 178.593 111.26 178.329 112.604C178.089 113.948 177.969 115.592 177.969 117.536C177.969 119.552 178.089 121.244 178.329 122.612C178.569 123.98 179.073 125.084 179.841 125.924C180.633 126.764 181.785 127.184 183.297 127.184C184.809 127.184 185.949 126.764 186.717 125.924C187.509 125.084 188.025 123.98 188.265 122.612C188.505 121.244 188.625 119.552 188.625 117.536Z" fill="black"/>
<path d="M196.46 108.5V104.756H203.948V131H199.808V108.5H196.46ZM214.014 117.284C211.518 116.036 210.27 114.068 210.27 111.38C210.27 110.084 210.594 108.896 211.242 107.816C211.89 106.736 212.862 105.884 214.158 105.26C215.454 104.612 217.038 104.288 218.91 104.288C220.758 104.288 222.33 104.612 223.626 105.26C224.946 105.884 225.93 106.736 226.578 107.816C227.226 108.896 227.55 110.084 227.55 111.38C227.55 112.724 227.202 113.912 226.506 114.944C225.834 115.952 224.934 116.732 223.806 117.284C225.174 117.788 226.254 118.616 227.046 119.768C227.838 120.896 228.234 122.228 228.234 123.764C228.234 125.324 227.838 126.704 227.046 127.904C226.254 129.104 225.15 130.028 223.734 130.676C222.318 131.324 220.71 131.648 218.91 131.648C217.11 131.648 215.502 131.324 214.086 130.676C212.694 130.028 211.602 129.104 210.81 127.904C210.018 126.704 209.622 125.324 209.622 123.764C209.622 122.204 210.018 120.86 210.81 119.732C211.602 118.604 212.67 117.788 214.014 117.284ZM223.626 111.884C223.626 110.54 223.206 109.508 222.366 108.788C221.526 108.068 220.374 107.708 218.91 107.708C217.47 107.708 216.33 108.068 215.49 108.788C214.65 109.508 214.23 110.552 214.23 111.92C214.23 113.12 214.662 114.104 215.526 114.872C216.414 115.616 217.542 115.988 218.91 115.988C220.278 115.988 221.406 115.604 222.294 114.836C223.182 114.068 223.626 113.084 223.626 111.884ZM218.91 119.084C217.326 119.084 216.03 119.48 215.022 120.272C214.038 121.04 213.546 122.156 213.546 123.62C213.546 124.988 214.026 126.104 214.986 126.968C215.946 127.808 217.254 128.228 218.91 128.228C220.542 128.228 221.826 127.796 222.762 126.932C223.722 126.068 224.202 124.964 224.202 123.62C224.202 122.18 223.71 121.064 222.726 120.272C221.766 119.48 220.494 119.084 218.91 119.084Z" fill="#B50314"/>
<circle cx="654" cy="74" r="15" stroke="black" stroke-width="2"/>
<circle cx="654" cy="74" r="10" fill="#B50314"/>
<circle cx="191" cy="74" r="15" stroke="black" stroke-width="2"/>
<circle cx="191" cy="74" r="10" fill="#B50314"/>
</svg>
