<svg width="394" height="380" viewBox="0 0 394 380" fill="none" xmlns="http://www.w3.org/2000/svg">
<path d="M50.2274 15.822C25.2543 8.88507 -0.665886 10.5861 -25.2303 1C-25.2303 14.4243 -36.0099 12.3213 -36.0099 27.9492C-36.0099 47.9673 -32.827 70.968 -40.202 89.9323C-50.7694 117.105 -59.0807 145.67 -68.3489 173.475C-74.511 191.961 -73.7388 209.408 -73.7388 228.721C-73.7388 249.466 -75.5372 270.585 -69.6964 290.704C-58.8865 327.938 -37.5808 356.363 -1.57487 372.3C29.5901 386.094 60.0494 374.768 90.6512 366.161C107.377 361.457 121.996 351.626 139.759 351.339C157.714 351.05 175.699 351.339 193.657 351.339C229.776 351.339 263.716 367.575 299.657 370.054C330.991 372.215 360.824 371.529 379.007 342.955C397.539 313.834 394.038 277.476 389.188 244.74C380.127 183.577 280.99 174.739 233.482 162.695C200.997 154.46 180.934 140.177 160.719 114.187C143.53 92.086 121.882 74.2631 104.725 52.2034C90.2357 33.5748 73.0441 22.16 50.2274 15.822Z" fill="black" stroke="black" stroke-linecap="round" stroke-linejoin="round"/>
</svg>
